<svg width="44" height="60" viewBox="0 0 44 60" fill="none" xmlns="http://www.w3.org/2000/svg">
<path d="M37.6418 11.2064C37.8245 11.1032 37.9988 10.9856 38.1628 10.8547C40.3 9.12428 42.8879 3.75065 40.909 1.3079C38.9302 -1.13486 33.1388 0.281104 31.0017 2.00928C30.5009 2.40251 30.1201 2.92802 29.9023 3.52638C31.6496 4.20814 33.2382 5.24164 34.5695 6.56276C35.9009 7.88389 36.9466 9.46446 37.6418 11.2064ZM8.20335 39.5125C8.31988 39.8401 8.16158 39.6576 8.43641 39.9061C9.45001 40.8295 10.91 40.2491 11.1518 39.6862C11.4904 38.8727 8.72005 38.4923 8.20335 39.5125ZM2.65383 35.4295C2.98887 34.5608 3.51012 33.7759 4.18094 33.1302C4.85176 32.4845 5.65586 31.9935 6.53673 31.6917C6.45133 31.4977 6.33306 31.32 6.18714 31.1663C5.2461 30.168 2.48453 29.0709 1.35 30.1373C0.215469 31.2036 1.14772 34.0246 2.08656 35.0228C2.24731 35.1941 2.44002 35.3322 2.65383 35.4295ZM43.4771 43.5449C43.4211 40.5263 42.5881 37.573 41.0585 34.97C40.3414 33.7619 39.4634 32.6568 38.4487 31.6851C37.7615 31.0303 37.0068 30.4503 36.1972 29.9548C35.8666 29.7701 35.5797 29.5165 35.3559 29.2111C35.132 28.9057 34.9765 28.5556 34.9 28.1848C34.7246 27.2711 34.8608 26.325 35.2869 25.498C35.5684 24.9571 35.9641 24.4866 36.2654 23.9589C36.6643 23.2563 37.0019 22.5207 37.2746 21.7602C37.8465 20.1886 38.1411 18.5296 38.1453 16.8571C38.1453 9.49806 32.6683 3.47141 25.7226 2.94592H25.5599L15.3315 2.90415C14.8794 2.90531 14.4461 3.08544 14.1264 3.40516C13.8066 3.72489 13.6265 4.15819 13.6253 4.61034V31.8742C13.4857 31.7599 13.3111 31.697 13.1306 31.6961L8.32208 31.7137C5.0636 31.9336 2.48892 34.7589 2.48892 38.2065C2.48338 38.9262 2.59781 39.6418 2.82753 40.3238C3.07305 40.9328 3.36716 41.521 3.70701 42.0828C3.99943 42.6215 4.2193 43.3866 3.83013 43.9385C3.61436 44.1994 3.3462 44.4122 3.043 44.5629C2.76037 44.736 2.49976 44.9428 2.26686 45.1786C1.10484 46.3543 0.348427 47.8702 0.107734 49.5056C0.0367412 49.9543 0.000722797 50.4079 0 50.8622C0 54.9914 2.93306 58.3378 6.55212 58.3378C8.69146 58.3378 11.0331 58.1971 13.256 58.1971C13.3972 58.1965 13.5348 58.1514 13.6489 58.0681C13.763 57.9848 13.8478 57.8675 13.8914 57.7331C14.1371 58.3096 14.5439 58.8029 15.063 59.1539C15.582 59.5049 16.1914 59.6987 16.8179 59.712C21.0526 59.7691 25.417 60 29.4494 60C37.2064 60 43.4925 52.8257 43.4925 43.9737C43.4815 43.8308 43.4815 43.6879 43.4771 43.5449ZM6.69064 40.6866C6.74121 39.0706 8.00986 37.2171 9.27851 36.9202C10.2855 36.685 11.0111 37.3116 11.4772 37.7997C12.0032 38.3886 12.3802 39.0951 12.5766 39.8599C13.0999 41.8893 11.5762 43.2459 10.1294 43.4856C8.42981 43.7802 6.64007 42.2565 6.69064 40.6976V40.6866ZM19.5377 50.2708C19.3798 50.5634 19.1605 50.8185 18.8949 51.0185C18.6292 51.2185 18.3235 51.3587 17.9986 51.4295C17.0731 51.6477 16.1126 51.6732 15.1768 51.5045C14.2411 51.3358 13.35 50.9765 12.559 50.4488C12.0137 50.119 11.6795 49.8992 11.7433 49.0901C11.807 48.2809 12.2929 46.8782 12.8426 46.3285C13.3923 45.7788 13.9969 46.08 14.8214 46.4098C15.646 46.7396 16.6728 47.1002 17.4973 47.3795C18.3218 47.6587 18.944 47.8588 19.3134 48.0896C19.4687 48.1739 19.5988 48.2979 19.6904 48.4489C19.7819 48.6 19.8317 48.7727 19.8345 48.9493C19.8642 49.4127 19.7612 49.8748 19.5377 50.2817V50.2708ZM25.1004 27.3031C21.7649 27.855 18.2844 24.8846 18.3789 21.8526C18.4757 18.7084 20.9404 15.0981 23.4184 14.5199C25.3774 14.0626 26.7912 15.2806 27.7168 16.2305C28.5611 17.0946 29.4494 18.649 29.8628 20.2431C30.8895 24.2052 27.9169 26.8458 25.1004 27.3141V27.3031ZM21.323 19.5615C21.5429 20.2013 21.246 19.8429 21.7781 20.3289C23.757 22.1274 26.5933 20.9885 27.055 19.8891C27.7234 18.3104 22.3322 17.5695 21.323 19.5615Z" fill="#E2DDCA"/>
</svg>
