<svg width="208" height="224" viewBox="0 0 208 224" fill="none" xmlns="http://www.w3.org/2000/svg">
<path d="M142.971 57.5067C143.417 57.2578 143.842 56.9717 144.24 56.6516C149.409 52.4502 155.651 39.395 150.892 33.4565C146.133 27.518 132.064 30.9586 126.896 35.16C125.674 36.1112 124.744 37.3873 124.211 38.8429C128.445 40.4993 132.296 43.0106 135.523 46.2211C138.75 49.4316 141.285 53.2729 142.971 57.5067ZM71.6669 126.304C71.9555 127.106 71.5729 126.654 72.2375 127.26C74.6941 129.502 78.2315 128.095 78.8088 126.708C79.6344 124.749 72.9221 123.827 71.6669 126.304ZM58.2424 116.387C59.0501 114.272 60.3101 112.362 61.9338 110.789C63.5574 109.216 65.505 108.02 67.6396 107.284C67.4334 106.813 67.1472 106.383 66.7938 106.011C64.5183 103.587 57.8262 100.921 55.0876 103.506C52.349 106.092 54.5976 112.933 56.8731 115.377C57.2565 115.797 57.7168 116.14 58.2289 116.387H58.2424ZM157.121 136.101C156.986 128.752 154.963 121.563 151.248 115.229C149.499 112.312 147.367 109.645 144.911 107.297C143.246 105.706 141.417 104.298 139.454 103.096C138.655 102.645 137.962 102.028 137.422 101.286C136.881 100.543 136.505 99.6936 136.32 98.7933C135.91 96.5749 136.253 94.2828 137.293 92.2825C137.964 90.9359 138.937 89.8317 139.662 88.5457C140.629 86.8473 141.447 85.0675 142.106 83.2267C143.483 79.4008 144.184 75.3635 144.18 71.2959C144.18 53.4198 130.909 38.7756 114.089 37.503C113.957 37.4963 113.824 37.4963 113.692 37.503L88.8973 37.3549C87.803 37.3567 86.7541 37.7935 85.9803 38.5697C85.2065 39.3458 84.7711 40.398 84.7693 41.4957V107.768C84.4315 107.487 84.0068 107.332 83.5678 107.331L71.922 107.378C64.0283 107.93 57.7926 114.784 57.7926 123.153C57.7788 124.902 58.0556 126.64 58.6115 128.297C59.2124 129.78 59.9307 131.212 60.7595 132.579C61.471 133.892 62.0012 135.751 61.0548 137.091C60.5339 137.723 59.8869 138.239 59.1552 138.605C58.4716 139.027 57.8407 139.529 57.2758 140.1C54.4567 142.945 52.6156 146.617 52.0201 150.583C51.8457 151.674 51.7582 152.778 51.7583 153.883C51.7583 163.908 58.8599 172.062 67.6261 172.062C72.808 172.062 78.4732 171.718 83.8631 171.718C84.2053 171.716 84.5382 171.606 84.8151 171.405C85.092 171.203 85.299 170.92 85.4069 170.594C86.0009 171.994 86.985 173.192 88.2411 174.045C89.4972 174.897 90.972 175.368 92.4884 175.401C102.745 175.543 113.296 176.074 123.083 176.074C141.877 176.074 157.101 158.643 157.101 137.138C157.121 136.794 157.114 136.451 157.107 136.101H157.121ZM68.0087 129.186C68.1295 125.261 71.1971 120.756 74.278 120.036C76.7145 119.464 78.4732 120.985 79.6478 122.17C80.9325 123.598 81.8537 125.317 82.3327 127.18C83.6013 132.108 79.9163 135.401 76.4125 135.986C72.2173 136.68 67.8879 132.97 68.0087 129.186ZM99.1268 152.469C98.7419 153.181 98.2079 153.801 97.5614 154.287C96.9148 154.773 96.1712 155.113 95.3814 155.283C92.8802 155.83 90.291 155.83 87.7898 155.283C85.8036 154.812 83.914 153.999 82.2052 152.879C80.8627 152.078 80.0573 151.533 80.2318 149.573C80.4063 147.614 81.5742 144.187 82.8831 142.84C84.192 141.494 85.6822 142.235 87.6623 143.036C89.6424 143.837 92.1461 144.712 94.1463 145.392C95.6631 145.826 97.1352 146.403 98.5429 147.116C98.9194 147.32 99.2349 147.621 99.4567 147.987C99.6786 148.354 99.7987 148.774 99.8048 149.203C99.896 150.334 99.6606 151.468 99.1268 152.469ZM112.598 96.6657C104.544 98.0123 96.0862 90.8013 96.3144 83.4287C96.556 75.7868 102.523 67.0137 108.524 65.6065C113.263 64.4955 116.693 67.458 118.935 69.7675C121.421 72.552 123.203 75.896 124.13 79.5168C126.6 89.118 119.418 95.5346 112.598 96.6657ZM103.45 77.8134C104.007 79.3754 103.262 78.4867 104.55 79.6851C109.336 84.0481 116.216 81.3011 117.351 78.6079C118.955 74.797 105.893 72.9926 103.45 77.8134Z" fill="#B47F7D"/>
<path d="M30.9101 47.3132C30.7412 47.7685 30.5156 48.2006 30.2388 48.5992C29.6683 49.4678 28.9769 49.8314 27.4801 48.8483L19.177 43.3879L20.1503 41.8999L28.3862 47.2863C28.9635 47.6701 29.1313 47.5421 29.326 47.2392C29.5206 46.9362 29.5945 46.7342 29.6347 46.6803L30.9101 47.3132Z" fill="#4A8FA5"/>
<path d="M26.829 38.5668C27.5105 37.6975 28.3344 36.9507 29.2655 36.3584L33.7829 39.8326C34.4541 40.3578 34.6891 40.3174 35.0448 39.5431L36.1725 40.0952C36.0246 40.4979 35.8188 40.8767 35.5617 41.2196C35.3992 41.5016 35.1403 41.715 34.833 41.8203C34.5257 41.9255 34.1908 41.9154 33.8903 41.7919L33.85 41.8458C33.9643 42.7662 33.7243 43.6957 33.1788 44.4447C32.2055 45.724 31.0174 45.9866 28.601 44.1283C25.5537 41.7852 25.5134 40.2905 26.829 38.5668ZM29.5139 42.5662C31.3128 43.9532 31.8296 43.7916 32.2726 43.2058C32.6661 42.6117 32.8085 41.8853 32.6687 41.1859L29.091 38.4389C28.7214 38.7127 28.3916 39.0367 28.111 39.4017C27.4197 40.2501 27.4331 40.9907 29.4871 42.5662H29.5139Z" fill="#4A8FA5"/>
<path d="M35.9441 28.1648C36.7306 27.4061 37.6381 26.7848 38.629 26.3267L42.6564 30.3664C43.2605 30.9791 43.482 30.9724 43.9452 30.2587L44.9788 30.932C44.7803 31.3125 44.5245 31.66 44.2204 31.9622C44.0209 32.2186 43.7357 32.394 43.4173 32.4558C43.099 32.5177 42.7691 32.4619 42.4886 32.2988L42.4416 32.3459C42.4216 33.2732 42.0523 34.1585 41.4079 34.8237C40.2668 35.9548 39.0586 36.0491 36.9241 33.8676C34.2325 31.2148 34.4003 29.6931 35.9441 28.1648ZM38.0115 32.5075C39.6023 34.1302 40.1393 34.0427 40.6628 33.5309C40.899 33.2642 41.0799 32.953 41.1951 32.6155C41.3103 32.278 41.3576 31.9209 41.3341 31.5649L38.1793 28.3398C37.7723 28.5555 37.3992 28.83 37.0718 29.1545C36.2932 29.9221 36.2059 30.656 38.0115 32.5075Z" fill="#4A8FA5"/>
<path d="M45.6972 26.9458C46.3282 27.7605 46.939 27.8817 47.5297 27.4037C47.7253 27.2411 47.8797 27.0343 47.98 26.8001C48.0804 26.566 48.1239 26.3114 48.1069 26.0571C48.1069 25.5252 47.9458 24.825 47.0531 23.714C46.187 22.7029 45.1539 21.8488 43.999 21.1891L45.4086 20.0513C46.55 20.7245 47.5673 21.59 48.4157 22.6098C49.7582 24.2459 50.0065 25.7743 49.5568 26.9593C49.3095 27.6396 48.8741 28.2352 48.3016 28.6762C46.845 29.8545 45.4958 29.4976 44.3615 28.0635L40.8711 23.7207L42.2135 22.6165L45.6972 26.9458Z" fill="#4A8FA5"/>
<path d="M50.7649 16.0791C52.8457 14.6921 54.121 15.6415 54.752 16.5572C55.6178 17.9038 55.7051 18.6107 54.0807 19.6813C53.3671 20.1412 52.6037 20.5184 51.8053 20.8057L51.8791 20.9202C52.9866 22.5967 53.725 22.7852 54.8258 22.0513C55.5128 21.5839 56.1184 21.0061 56.618 20.3411L57.598 21.2837C57.0192 22.1259 56.2773 22.8426 55.4165 23.3912C53.2484 24.832 51.8455 24.0645 50.2279 21.6338C48.6102 19.2032 48.5163 17.5671 50.7649 16.0791ZM52.9799 18.8666C53.7384 18.3616 53.6109 17.9913 53.3021 17.52C53.2146 17.3674 53.094 17.2365 52.9492 17.1371C52.8044 17.0377 52.6391 16.9723 52.4656 16.9458C52.2921 16.9193 52.1149 16.9323 51.9471 16.9839C51.7793 17.0355 51.6253 17.1244 51.4965 17.2439C50.6105 17.8297 50.4964 18.5905 51.1475 19.7015C51.7934 19.5084 52.41 19.2275 52.9799 18.8666Z" fill="#4A8FA5"/>
<path d="M55.8596 13.1031L57.2021 12.3759L57.6787 13.0492H57.7323C58.0437 12.1839 58.6628 11.4646 59.4708 11.0293C60.4173 10.5244 61.6456 10.4705 62.5719 12.2143L65.3709 17.493L63.8204 18.3212L61.1355 13.2647C60.7059 12.4433 60.2427 12.3153 59.6722 12.5914C59.3664 12.7817 59.1018 13.0318 58.8942 13.3268C58.6867 13.6217 58.5404 13.9555 58.464 14.3083L61.2898 19.6408L59.7594 20.442L55.8596 13.1031Z" fill="#4A8FA5"/>
<path d="M65.1964 9.83746L64.0956 10.3088L63.5854 9.09683L64.6997 8.62552L63.9815 6.60563L65.4179 5.81787L66.3173 7.95896L68.284 7.12407L68.6129 8.41007L66.8275 9.16416L68.7606 13.7089C69.0157 14.3149 69.2372 14.2947 69.7138 14.0927C70.0577 13.9177 70.3856 13.7127 70.6938 13.48L71.4791 14.6246C71.0069 15.042 70.4694 15.3787 69.8883 15.6211C68.6264 16.1597 67.8746 16.1261 67.1362 14.4294L65.1964 9.83746Z" fill="#4A8FA5"/>
<path d="M72.1167 5.66973L73.9424 11.11C74.231 11.9785 74.6472 12.1873 75.2849 11.9785C75.9495 11.6983 76.4792 11.1694 76.7616 10.504L74.8016 4.75404L76.4797 4.18848L79.131 12.093L77.6543 12.5845L77.2918 11.8304C76.8347 12.637 76.1031 13.2513 75.2312 13.5608C74.1975 13.9109 72.9758 13.756 72.3516 11.8843L70.4453 6.22183L72.1167 5.66973Z" fill="#4A8FA5"/>
<path d="M79.5605 3.36051L81.0574 2.99693L81.346 3.77795H81.4131C81.6092 3.41981 81.8776 3.10667 82.2013 2.85856C82.5249 2.61045 82.8966 2.43284 83.2926 2.3371C83.5455 2.2649 83.8086 2.23533 84.0712 2.24957L84.2189 3.89241C83.9409 3.89741 83.6643 3.93125 83.3933 3.99341C83.0525 4.0775 82.7353 4.23817 82.4655 4.46329C82.1957 4.6884 81.9805 4.97208 81.836 5.29287L83.2389 11.0496L81.534 11.4737L79.5605 3.36051Z" fill="#4A8FA5"/>
<path d="M88.9981 1.21228C90.0894 1.05685 91.1989 1.08644 92.2804 1.2998L93.1664 6.94877C93.3007 7.79713 93.4886 7.91832 94.2807 7.62207L94.717 8.80035C94.3344 8.99228 93.9246 9.12398 93.502 9.19085C93.1904 9.28519 92.8553 9.26278 92.559 9.12778C92.2626 8.99278 92.0253 8.75438 91.8911 8.45696H91.8307C91.2821 9.19832 90.4738 9.70357 89.5686 9.87089C87.9778 10.12 86.9441 9.49384 86.4676 6.5044C85.8568 2.67333 86.8837 1.58932 88.9981 1.21228ZM88.1658 5.92536C88.5215 8.17418 89.0115 8.41656 89.7297 8.3021C90.0773 8.22381 90.4058 8.07692 90.6962 7.87001C90.9866 7.6631 91.2331 7.40029 91.4212 7.0969L90.7164 2.63293C90.271 2.57166 89.8194 2.57166 89.374 2.63293C88.2665 2.84166 87.763 3.39376 88.1658 5.95229V5.92536Z" fill="#4A8FA5"/>
<path d="M102.785 0.000546835C103.508 -0.00805511 104.229 0.0848654 104.926 0.276601L104.698 1.66359C104.151 1.54382 103.593 1.48511 103.034 1.48853C101.644 1.5222 101.168 2.39749 101.215 4.39045C101.268 6.545 101.778 7.16444 103.154 7.13077C103.721 7.11033 104.281 7.00829 104.819 6.82779L105.181 8.17438C104.463 8.44168 103.706 8.5895 102.94 8.61202C100.255 8.67935 99.5163 7.26543 99.4425 4.41065C99.3821 1.74439 100.087 0.0611436 102.785 0.000546835Z" fill="#4A8FA5"/>
<path d="M106.651 4.40385C106.826 1.5356 107.712 -0.039921 110.39 0.121671C113.068 0.283262 113.659 1.94631 113.491 4.83476C113.323 7.7232 112.424 9.01594 109.752 8.87455C107.081 8.73316 106.477 7.28556 106.651 4.40385ZM111.726 4.69336C111.847 2.60614 111.471 1.68372 110.249 1.60966C109.027 1.5356 108.544 2.39068 108.417 4.49137C108.289 6.59206 108.685 7.27209 109.887 7.33942C111.088 7.40675 111.592 6.84792 111.719 4.69336H111.726Z" fill="#4A8FA5"/>
<path d="M116.807 0.781738L118.324 1.05779L118.277 1.89268H118.324C119.026 1.42066 119.875 1.21975 120.713 1.32711C121.108 1.3725 121.479 1.53726 121.777 1.79947C122.076 2.06168 122.288 2.4089 122.385 2.7949C123.12 2.25591 124.031 2.01542 124.935 2.1216C126.043 2.32359 126.989 3.03728 126.647 4.94945L125.587 10.8677L123.841 10.5513L124.868 4.82825C125.023 3.99337 124.868 3.62978 124.15 3.48166C123.495 3.48096 122.863 3.72042 122.371 4.15496C122.362 4.26569 122.346 4.37582 122.324 4.48488L121.318 10.1069L119.606 9.80393L120.633 4.08089C120.774 3.29314 120.593 2.87569 119.962 2.7343C119.301 2.71726 118.657 2.94226 118.149 3.3672L117.089 9.29895L115.364 8.98924L116.807 0.781738Z" fill="#4A8FA5"/>
<path d="M130.218 3.56921L131.923 4.04725L129.695 12.0797L127.99 11.6017L130.218 3.56921ZM131.017 0.431641L132.856 0.943348L132.4 2.57946L130.567 2.06102L131.017 0.431641Z" fill="#4A8FA5"/>
<path d="M137.85 5.74393C140.206 6.57882 140.24 8.19473 139.864 9.22488C139.34 10.7129 138.803 11.2448 136.977 10.5715C136.18 10.281 135.419 9.89921 134.709 9.4336L134.668 9.56152C133.997 11.4535 134.299 12.1605 135.548 12.5981C136.332 12.8661 137.155 13.0026 137.984 13.0021L137.823 14.3487C136.806 14.3937 135.79 14.2334 134.836 13.8774C132.379 13.0088 132.151 11.44 133.098 8.66604C134.044 5.89205 135.306 4.84844 137.85 5.74393ZM136.971 9.20468C137.83 9.50766 138.045 9.20468 138.233 8.64584C138.3 8.48359 138.329 8.3084 138.32 8.13306C138.311 7.95772 138.263 7.78667 138.179 7.63242C138.095 7.47818 137.978 7.34463 137.837 7.24156C137.695 7.13848 137.532 7.06847 137.36 7.03666C136.36 6.67981 135.689 7.03666 135.199 8.24187C135.745 8.63963 136.34 8.96336 136.971 9.20468Z" fill="#4A8FA5"/>
<path d="M143.267 8.00586L144.663 8.67916L144.415 9.47365H144.475C145.356 9.17933 146.316 9.23228 147.16 9.62177C148.14 10.0661 148.932 11.0155 148.113 12.8065L145.636 18.2467L144.039 17.5128L146.415 12.3015C146.798 11.4599 146.616 11.0088 146.032 10.7394C145.696 10.6114 145.337 10.5525 144.977 10.5664C144.617 10.5803 144.264 10.6666 143.938 10.8202L141.434 16.3211L139.837 15.5872L143.267 8.00586Z" fill="#4A8FA5"/>
<path d="M147.71 18.4692L153.711 14.9074L150.959 13.3454L151.691 12.0459L156.49 14.7391L156.141 15.3653L150.1 18.9607L153.355 20.8122L152.624 22.1117L147.348 19.1223L147.71 18.4692Z" fill="#4A8FA5"/>
<path d="M161.303 17.7487C162.204 18.3856 162.992 19.171 163.632 20.0716L160.417 24.7846C159.933 25.4983 159.987 25.7138 160.772 26.037L160.282 27.1883C159.875 27.064 159.488 26.8803 159.135 26.643C158.843 26.4974 158.614 26.2504 158.491 25.9482C158.367 25.646 158.358 25.309 158.463 25.0001L158.41 24.9597C157.5 25.1234 156.562 24.9358 155.785 24.4345C154.443 23.5256 154.134 22.354 155.846 19.8292C158.034 16.631 159.51 16.5031 161.303 17.7487ZM157.457 20.6304C156.181 22.5089 156.369 23.0206 156.973 23.4313C157.28 23.6127 157.619 23.7311 157.972 23.7796C158.325 23.8281 158.683 23.8059 159.027 23.7141L161.564 19.984C161.275 19.6252 160.936 19.31 160.558 19.0481C159.651 18.422 158.913 18.4691 157.457 20.6102V20.6304Z" fill="#4A8FA5"/>
<path d="M172.13 26.2051C172.946 26.9503 173.627 27.8319 174.143 28.8108L170.344 33.0593C169.774 33.7326 169.794 33.9278 170.532 34.3453L169.901 35.4225C169.512 35.2557 169.152 35.0285 168.834 34.7492C168.566 34.5667 168.372 34.2929 168.29 33.9786C168.207 33.6643 168.241 33.3306 168.384 33.0391L168.337 32.9919C167.413 33.0334 166.509 32.7204 165.807 32.1166C164.612 31.0461 164.464 29.8409 166.478 27.5652C169.015 24.6767 170.505 24.7508 172.13 26.2051ZM167.934 28.5212C166.424 30.2112 166.545 30.7499 167.089 31.2144C167.369 31.4387 167.693 31.6033 168.039 31.6982C168.385 31.7931 168.747 31.8164 169.102 31.7665L172.109 28.4001C171.869 28.0064 171.573 27.6503 171.23 27.343C170.398 26.6629 169.659 26.6158 167.934 28.5212Z" fill="#4A8FA5"/>
<path d="M171.029 42.2567L173.257 40.1762C173.673 39.7924 174.311 39.2403 174.325 39.2269C173.474 39.1511 172.678 38.7768 172.076 38.1698C171.002 37.0185 170.942 35.8065 173.17 33.726C175.982 31.1002 177.466 31.3022 178.949 32.9113C179.672 33.7362 180.265 34.6671 180.708 35.6719L172.244 43.5697L171.029 42.2567ZM174.526 34.8504C172.881 36.3923 172.955 36.9377 173.465 37.483C173.988 37.9676 174.681 38.2243 175.392 38.1967L178.688 35.1198C178.488 34.7045 178.225 34.3229 177.909 33.9886C177.157 33.1605 176.432 33.0595 174.526 34.837V34.8504Z" fill="#4A8FA5"/>
<path d="M184.212 39.1935L179.688 42.7148C178.969 43.2736 178.909 43.7449 179.305 44.2566C179.79 44.793 180.464 45.119 181.184 45.1656L185.957 41.449L187.044 42.8562L180.48 47.9665L179.513 46.7007L180.104 46.115C179.198 45.962 178.38 45.4833 177.801 44.7684C177.13 43.9065 176.868 42.7013 178.426 41.4894L183.124 37.8267L184.212 39.1935Z" fill="#4A8FA5"/>
<path d="M188.749 45.4013L189.736 46.8758L182.869 51.5283L181.849 50.0672L188.749 45.4013ZM191.394 43.543L192.454 45.1252L191.051 46.0746L189.991 44.4856L191.394 43.543Z" fill="#4A8FA5"/>
<path d="M17.774 61.2235C19.7981 61.2235 21.4389 59.5776 21.4389 57.5473C21.4389 55.517 19.7981 53.8711 17.774 53.8711C15.75 53.8711 14.1091 55.517 14.1091 57.5473C14.1091 59.5776 15.75 61.2235 17.774 61.2235Z" fill="#4A8FA5"/>
<path d="M191.058 61.9711C193.082 61.9711 194.723 60.3252 194.723 58.2949C194.723 56.2646 193.082 54.6187 191.058 54.6187C189.034 54.6187 187.393 56.2646 187.393 58.2949C187.393 60.3252 189.034 61.9711 191.058 61.9711Z" fill="#4A8FA5"/>
<path d="M0 214.008V184.053H7.4909C14.8207 184.053 17.3915 186.544 17.3915 191.917C17.3915 195.284 15.8477 197.028 13.6192 197.977C16.4451 198.832 18.6736 200.852 18.6736 205.323C18.6736 211.638 15.2033 214.002 8.3098 214.002L0 214.008ZM7.3231 196.563C11.6055 196.563 12.8943 195.365 12.8943 192.052C12.8943 189.042 11.78 187.884 7.23583 187.884H4.55092V196.563H7.3231ZM8.18227 210.103C12.2096 210.103 14.1361 209.113 14.1361 205.242C14.1361 201.68 12.7198 200.347 8.13528 200.347H4.53751V210.103H8.18227Z" fill="#4A8FA5"/>
<path d="M34.7762 192.052C37.6296 192.085 40.4562 192.609 43.133 193.6V208.379C43.133 210.615 43.5626 211.005 45.7038 210.527L46.375 213.712C45.3213 214.044 44.2241 214.216 43.1196 214.223C41.1462 214.223 39.9447 213.624 39.307 211.692H39.1325C37.2061 213.368 35.2327 214.385 32.7491 214.385C28.5942 214.385 26.1979 212.365 26.1979 204.461C26.1711 194.503 29.158 192.052 34.7762 192.052ZM30.7489 203.828C30.7489 209.712 31.9034 210.527 33.7895 210.527C35.8032 210.527 37.4746 209.281 38.5821 208.123V196.435C37.442 196.098 36.26 195.926 35.0716 195.923C32.2524 195.923 30.7556 197.122 30.7556 203.828H30.7489Z" fill="#4A8FA5"/>
<path d="M57.739 182.983V190.786C57.739 192.847 57.6518 194.267 57.6518 194.483H57.739C59.38 193.003 61.4877 192.15 63.6928 192.072C67.7202 192.072 70.1165 194.092 70.1165 201.997C70.1165 211.537 67.5054 214.419 61.5113 214.419C58.6741 214.356 55.8657 213.833 53.1948 212.871V182.983H57.739ZM65.579 202.583C65.579 196.738 64.3775 195.924 62.5383 195.924C60.5649 195.924 58.8935 197.169 57.739 198.368V210.016C58.8717 210.385 60.0589 210.558 61.2496 210.528C64.1224 210.528 65.579 209.369 65.579 202.583Z" fill="#4A8FA5"/>
<path d="M83.1381 192.442V204.474C83.1784 207.693 85.4538 208.554 88.5079 207.565C89.2227 207.377 89.9123 207.103 90.5619 206.75V192.442H95.1061V213.988C95.1061 220.048 92.3205 224 86.2392 224C81.6547 224 79.1242 221.556 79.1242 217.812C79.1242 214.331 81.3124 212.143 83.8832 210.682L83.8362 210.595C80.668 210.339 78.614 208.622 78.614 204.191V192.442H83.1381ZM90.6357 210.399C89.5513 210.87 88.4936 211.4 87.4675 211.988C85.239 213.241 83.4401 214.91 83.4401 217.274C83.4093 217.68 83.4671 218.089 83.6096 218.471C83.752 218.853 83.9757 219.199 84.2651 219.485C84.5545 219.772 84.9026 219.991 85.2853 220.129C85.6679 220.267 86.0759 220.32 86.4808 220.283C89.2664 220.283 90.6357 218.048 90.6357 214.143V210.399Z" fill="#4A8FA5"/>
<path d="M118.391 214.008V184.053H125.889C133.212 184.053 135.783 186.544 135.783 191.917C135.783 195.284 134.239 197.028 132.017 197.977C134.843 198.832 137.071 200.852 137.071 205.323C137.071 211.638 133.601 214.002 126.701 214.002L118.391 214.008ZM125.714 196.563C130.003 196.563 131.285 195.365 131.285 192.052C131.285 189.042 130.171 187.884 125.634 187.884H122.949V196.563H125.714ZM126.573 210.103C130.601 210.103 132.527 209.113 132.527 205.242C132.527 201.68 131.118 200.347 126.533 200.347H122.935V210.103H126.573Z" fill="#4A8FA5"/>
<path d="M153.604 191.924C160.068 191.924 161.524 195.836 161.524 198.657C161.524 202.737 160.672 204.461 155.658 204.461C153.463 204.438 151.279 204.162 149.147 203.64V203.983C149.147 209.188 150.489 210.649 153.899 210.649C156.046 210.618 158.174 210.241 160.202 209.531L160.967 212.965C158.52 213.954 155.899 214.438 153.261 214.386C146.549 214.386 144.535 210.777 144.535 203.168C144.562 195.789 146.623 191.924 153.604 191.924ZM154.416 201.122C156.772 201.122 157.027 200.132 157.027 198.671C157.027 196.779 155.913 195.493 153.516 195.493C150.778 195.493 149.449 196.954 149.274 200.3C150.942 200.812 152.672 201.088 154.416 201.122Z" fill="#4A8FA5"/>
<path d="M177.546 192.052C180.4 192.086 183.226 192.61 185.903 193.6V208.379C185.903 210.615 186.326 211.005 188.474 210.527L189.112 213.712C188.058 214.044 186.961 214.216 185.856 214.223C183.89 214.223 182.688 213.624 182.044 211.692H181.876C179.943 213.368 177.976 214.385 175.492 214.385C171.338 214.385 168.935 212.365 168.935 204.461C168.935 194.503 171.935 192.052 177.546 192.052ZM173.519 203.828C173.519 209.712 174.674 210.527 176.56 210.527C178.573 210.527 180.245 209.281 181.359 208.123V196.435C180.219 196.098 179.037 195.926 177.848 195.923C175.016 195.923 173.519 197.122 173.519 203.828Z" fill="#4A8FA5"/>
<path d="M195.965 192.442H199.952L200.207 194.59H200.375C201.088 193.812 201.956 193.192 202.922 192.77C203.889 192.348 204.932 192.133 205.986 192.139C206.667 192.115 207.347 192.201 208 192.395L207.362 196.61C206.659 196.452 205.942 196.364 205.221 196.348C204.314 196.356 203.421 196.569 202.608 196.972C201.794 197.374 201.082 197.954 200.522 198.67V214.008H195.978L195.965 192.442Z" fill="#4A8FA5"/>
</svg>
