<svg width="219" height="45" viewBox="0 0 219 45" fill="none" xmlns="http://www.w3.org/2000/svg">
<path d="M28.2313 8.40483C28.3684 8.32742 28.4991 8.2392 28.6221 8.14099C30.225 6.84321 32.1659 2.81299 30.6818 0.980922C29.1976 -0.851145 24.8541 0.210828 23.2513 1.50696C22.8756 1.80188 22.59 2.19601 22.4267 2.64479C23.7372 3.15611 24.9287 3.93123 25.9272 4.92207C26.9257 5.91291 27.7099 7.09834 28.2313 8.40483ZM6.15251 29.6344C6.23991 29.8801 6.12118 29.7432 6.32731 29.9296C7.08751 30.6222 8.18246 30.1868 8.36386 29.7647C8.61781 29.1545 6.54003 28.8692 6.15251 29.6344ZM1.99037 26.5721C2.24166 25.9206 2.63259 25.332 3.1357 24.8477C3.63882 24.3633 4.24189 23.9951 4.90255 23.7688C4.8385 23.6233 4.7498 23.49 4.64036 23.3747C3.93457 22.626 1.8634 21.8032 1.0125 22.6029C0.161602 23.4027 0.86079 25.5184 1.56492 26.2671C1.68548 26.3955 1.83001 26.4992 1.99037 26.5721ZM32.6078 32.6587C32.5658 30.3947 31.9411 28.1798 30.7939 26.2275C30.256 25.3214 29.5976 24.4926 28.8365 23.7639C28.3211 23.2727 27.7551 22.8377 27.1479 22.4661C26.9 22.3276 26.6848 22.1373 26.5169 21.9083C26.349 21.6792 26.2324 21.4167 26.175 21.1386C26.0434 20.4534 26.1456 19.7438 26.4652 19.1235C26.6763 18.7178 26.9731 18.3649 27.199 17.9692C27.4982 17.4423 27.7514 16.8905 27.9559 16.3202C28.3849 15.1414 28.6058 13.8972 28.6089 12.6428C28.6089 7.12354 24.5012 2.60356 19.2919 2.20944H19.1699L11.4987 2.17811C11.1595 2.17898 10.8346 2.31408 10.5948 2.55387C10.355 2.79366 10.2199 3.11864 10.219 3.45776V23.9057C10.1143 23.8199 9.98331 23.7728 9.84798 23.7721L6.24156 23.7853C3.7977 23.9502 1.86669 26.0692 1.86669 28.6549C1.86253 29.1946 1.94836 29.7313 2.12064 30.2429C2.30479 30.6996 2.52537 31.1408 2.78025 31.5621C2.99958 31.9661 3.16448 32.54 2.8726 32.9539C2.71077 33.1496 2.50965 33.3091 2.28225 33.4222C2.07028 33.552 1.87482 33.7071 1.70014 33.8839C0.828633 34.7657 0.26132 35.9026 0.0808006 37.1292C0.0275559 37.4658 0.000542098 37.8059 0 38.1467C0 41.2435 2.1998 43.7533 4.91409 43.7533C6.5186 43.7533 8.27481 43.6478 9.94197 43.6478C10.0479 43.6474 10.1511 43.6135 10.2366 43.5511C10.3222 43.4886 10.3859 43.4007 10.4185 43.2999C10.6028 43.7322 10.9079 44.1022 11.2972 44.3654C11.6865 44.6287 12.1435 44.774 12.6134 44.784C15.7894 44.8269 19.0627 45 22.087 45C27.9048 45 32.6194 39.6192 32.6194 32.9803C32.6111 32.8731 32.6111 32.7659 32.6078 32.6587ZM5.01798 30.515C5.05591 29.3029 6.0074 27.9128 6.95888 27.6902C7.71414 27.5137 8.25832 27.9837 8.60791 28.3498C9.00243 28.7914 9.28518 29.3213 9.43242 29.8949C9.82489 31.417 8.68212 32.4344 7.59706 32.6142C6.32236 32.8351 4.98006 31.6924 5.01798 30.5232V30.515ZM14.6532 37.7031C14.5349 37.9226 14.3704 38.1139 14.1712 38.2639C13.9719 38.4139 13.7426 38.519 13.4989 38.5721C12.8048 38.7358 12.0845 38.7549 11.3826 38.6284C10.6808 38.5019 10.0125 38.2324 9.41923 37.8366C9.01027 37.5893 8.75962 37.4244 8.80745 36.8175C8.85527 36.2107 9.2197 35.1586 9.63196 34.7464C10.0442 34.3341 10.4977 34.56 11.1161 34.8074C11.7345 35.0547 12.5046 35.3252 13.1229 35.5346C13.7413 35.744 14.208 35.8941 14.485 36.0672C14.6015 36.1304 14.6991 36.2234 14.7678 36.3367C14.8364 36.45 14.8737 36.5795 14.8759 36.712C14.8981 37.0595 14.8209 37.4061 14.6532 37.7113V37.7031ZM18.8253 20.4774C16.3237 20.8913 13.7133 18.6634 13.7842 16.3894C13.8568 14.0313 15.7053 11.3236 17.5638 10.8899C19.0331 10.5469 20.0934 11.4605 20.7876 12.1729C21.4208 12.8209 22.087 13.9868 22.3971 15.1823C23.1672 18.1539 20.9377 20.1344 18.8253 20.4856V20.4774ZM15.9922 14.6711C16.1571 15.151 15.9345 14.8822 16.3336 15.2466C17.8177 16.5955 19.945 15.7413 20.2913 14.9168C20.7926 13.7328 16.7491 13.1771 15.9922 14.6711Z" fill="#B47F7D"/>
<path d="M47.4771 35.2477V10.7563H53.6263C59.6353 10.7563 61.7444 12.7929 61.7444 17.1875C61.7444 19.9282 60.478 21.3695 58.6509 22.1346C60.971 22.8371 62.7982 24.4894 62.7982 28.1437C62.7982 33.3084 59.9519 35.2345 54.2941 35.2345L47.4771 35.2477ZM53.4861 20.982C57.0002 20.982 58.0539 19.9925 58.0539 17.2914C58.0539 14.8311 57.1403 13.8829 53.4152 13.8829H51.2006V20.9737L53.4861 20.982ZM54.1886 32.0502C57.4866 32.0502 59.073 31.2422 59.073 28.0794C59.073 25.1622 57.9187 24.0739 54.154 24.0739H51.2006V32.0502H54.1886Z" fill="#4A8FA5"/>
<path d="M76.0085 17.2914C78.3484 17.319 80.6663 17.7467 82.8619 18.5562V30.6452C82.8619 32.4723 83.2131 32.789 84.971 32.4014L85.5003 35.0019C84.6367 35.276 83.7366 35.4183 82.8305 35.4241C81.2145 35.4241 80.23 34.9294 79.6974 33.3513H79.5638C77.9824 34.7216 76.3664 35.5643 74.3282 35.5643C70.9196 35.5643 68.9507 33.9152 68.9507 27.4478C68.9441 19.2884 71.4044 17.2914 76.0085 17.2914ZM72.7105 26.9201C72.7105 31.7336 73.6587 32.4014 75.2054 32.4014C76.8545 32.4014 78.2265 31.3823 79.14 30.4342V20.8698C78.2049 20.5921 77.2347 20.4499 76.2592 20.4477C73.9341 20.4543 72.7055 21.4321 72.7055 26.9201H72.7105Z" fill="#4A8FA5"/>
<path d="M94.8404 9.8774V16.2377C94.8404 17.9246 94.7712 19.0839 94.7712 19.2587H94.8404C96.036 18.2396 97.7576 17.2914 99.7265 17.2914C103.025 17.2914 105.003 18.9404 105.003 25.4096C105.003 33.2095 102.86 35.5643 97.9406 35.5643C96.2536 35.5643 93.2673 35.1421 91.1235 34.2995V9.8774H94.8404ZM101.272 25.901C101.272 21.1188 100.282 20.4592 98.7767 20.4592C97.1606 20.4592 95.7903 21.4783 94.8404 22.4628V31.9859C95.7705 32.2883 96.7452 32.4305 97.7229 32.4064C100.078 32.4014 101.272 31.4532 101.272 25.901Z" fill="#4A8FA5"/>
<path d="M115.678 17.608V27.4478C115.714 30.0862 117.576 30.7854 120.071 29.9774C120.657 29.8228 121.224 29.5986 121.757 29.3095V17.6015H125.483V35.246C125.483 40.2014 123.199 43.4334 118.209 43.4334C114.449 43.4334 112.375 41.4315 112.375 38.3742C112.375 35.528 114.167 33.7355 116.276 32.54L116.24 32.4707C113.641 32.2596 111.952 30.8547 111.952 27.2351V17.608H115.678ZM121.828 32.2959C120.938 32.6811 120.07 33.1155 119.228 33.597C117.401 34.6161 115.93 35.9864 115.93 37.9191C115.93 39.5681 117.018 40.3794 118.425 40.3794C120.709 40.3794 121.833 38.5507 121.833 35.3532L121.828 32.2959Z" fill="#4A8FA5"/>
<path d="M144.593 35.2477V10.7563H150.742C156.751 10.7563 158.86 12.7929 158.86 17.1875C158.86 19.9282 157.596 21.3695 155.768 22.1346C158.087 22.8371 159.914 24.4894 159.914 28.1437C159.914 33.3084 157.068 35.2345 151.41 35.2345L144.593 35.2477ZM150.602 20.982C154.116 20.982 155.172 19.9925 155.172 17.2914C155.172 14.8311 154.256 13.8829 150.533 13.8829H148.318V20.9737L150.602 20.982ZM151.305 32.0502C154.603 32.0502 156.189 31.2422 156.189 28.0794C156.189 25.1622 155.035 24.0739 151.27 24.0739H148.318V32.0502H151.305Z" fill="#4A8FA5"/>
<path d="M173.476 17.1859C178.782 17.1859 179.978 20.3834 179.978 22.7035C179.978 26.0412 179.274 27.4478 175.163 27.4478C173.758 27.4478 171.297 27.2004 169.822 26.7799V27.0603C169.822 31.3131 170.912 32.502 173.721 32.502C175.69 32.502 177.377 32.0799 178.888 31.5885L179.519 34.3918C178.888 34.7084 176.464 35.5462 173.195 35.5462C167.678 35.5462 166.062 32.5944 166.062 26.3743C166.062 20.3487 167.749 17.1859 173.476 17.1859ZM174.135 24.7055C176.068 24.7055 176.279 23.8974 176.279 22.7035C176.279 21.1568 175.366 20.103 173.398 20.103C171.149 20.103 170.059 21.2969 169.919 24.0392C171.29 24.4546 172.711 24.6788 174.144 24.7055H174.135Z" fill="#4A8FA5"/>
<path d="M193.117 17.2914C195.457 17.319 197.774 17.7468 199.969 18.5562V30.6452C199.969 32.4723 200.322 32.789 202.078 32.4014L202.606 35.0019C201.742 35.2758 200.841 35.4181 199.935 35.4241C198.318 35.4241 197.334 34.9294 196.801 33.3513H196.66C195.078 34.7216 193.462 35.5643 191.424 35.5643C188.015 35.5643 186.048 33.9152 186.048 27.4478C186.055 19.2884 188.515 17.2914 193.117 17.2914ZM189.819 26.9201C189.819 31.7336 190.768 32.4014 192.314 32.4014C193.963 32.4014 195.337 31.3823 196.251 30.4342V20.8698C195.315 20.5922 194.344 20.4501 193.368 20.4477C191.038 20.4543 189.814 21.4321 189.814 26.9201H189.819Z" fill="#4A8FA5"/>
<path d="M208.226 17.608H211.494L211.705 19.3642H211.845C212.431 18.728 213.143 18.2212 213.936 17.8765C214.729 17.5317 215.585 17.3566 216.449 17.3623C217.109 17.3623 217.749 17.4316 218.098 17.5734L217.571 21.0166C216.994 20.8901 216.405 20.8194 215.815 20.8055C215.069 20.811 214.334 20.9846 213.665 21.3132C212.996 21.6418 212.41 22.117 211.949 22.7035V35.2477H208.224L208.226 17.608Z" fill="#4A8FA5"/>
</svg>
